<svg xmlns="http://www.w3.org/2000/svg" width="1024" height="768" viewBox="0 0 1024 768"><g fill="none" fill-rule="evenodd" transform="translate(186.267 120.493)"><path fill="#FBFBFB" d="M35.3701828,334.824553 C-28.0662067,237.680237 -12.4469172,65.1911765 133.764263,44.5654154 C279.975444,23.9396542 319.663587,181.232814 441.010928,152.072641 C562.358268,122.912468 639.972978,179.239091 649.363729,252.168701 C658.754481,325.09831 639.972978,411.100771 525.112324,415.263022 C410.25167,419.425273 387.252443,391.879325 319.923542,399.346228 C252.59464,406.813131 98.8065723,431.96887 35.3701828,334.824553 Z"/><path fill="#D2D1D6" fill-rule="nonzero" d="M190.01605 180.055859L192.153087 186.047572C192.244571 186.304183 192.425724 186.5073 192.654304 186.610151L197.993009 189.008542C198.747166 189.34733 198.747166 190.545621 197.993009 190.884409L192.654304 193.2828C192.425724 193.385393 192.244571 193.588769 192.153087 193.845379L190.01605 199.837093C189.714128 200.683675 188.646387 200.683675 188.344465 199.837093L186.207428 193.845379C186.115944 193.588769 185.934791 193.385651 185.706211 193.2828L180.367506 190.884409C179.613349 190.545621 179.613349 189.34733 180.367506 189.008542L185.706211 186.610151C185.934791 186.507559 186.115944 186.304183 186.207428 186.047572L188.344465 180.055859C188.646387 179.209277 189.714128 179.209277 190.01605 180.055859zM242.819312 113.591443L243.704078 115.986071C243.741954 116.088627 243.816954 116.169804 243.91159 116.21091L246.121895 117.169442C246.434128 117.304841 246.434128 117.783746 246.121895 117.919145L243.91159 118.877678C243.816954 118.91868 243.741954 118.99996 243.704078 119.102516L242.819312 121.497144C242.694312 121.835486 242.252251 121.835486 242.127251 121.497144L241.242485 119.102516C241.204609 118.99996 241.129609 118.918783 241.034973 118.877678L238.824668 117.919145C238.512435 117.783746 238.512435 117.304841 238.824668 117.169442L241.034973 116.21091C241.129609 116.169908 241.204609 116.088627 241.242485 115.986071L242.127251 113.591443C242.252251 113.253101 242.694312 113.253101 242.819312 113.591443zM252.819312 413.591443L253.704078 415.986071C253.741954 416.088627 253.816954 416.169804 253.91159 416.21091L256.121895 417.169442C256.434128 417.304841 256.434128 417.783746 256.121895 417.919145L253.91159 418.877678C253.816954 418.91868 253.741954 418.99996 253.704078 419.102516L252.819312 421.497144C252.694312 421.835486 252.252251 421.835486 252.127251 421.497144L251.242485 419.102516C251.204609 418.99996 251.129609 418.918783 251.034973 418.877678L248.824668 417.919145C248.512435 417.783746 248.512435 417.304841 248.824668 417.169442L251.034973 416.21091C251.129609 416.169908 251.204609 416.088627 251.242485 415.986071L252.127251 413.591443C252.252251 413.253101 252.694312 413.253101 252.819312 413.591443z" opacity=".5"/><path fill="#FBFBFB" d="M367.678977,125.061949 C396.857712,137.453766 424.868238,131.894405 430.242239,112.64477 C435.616239,93.3951347 416.318689,67.7446699 387.139954,55.3528534 C357.961219,42.9610368 329.950693,48.5203972 324.576693,67.7700325 C319.202693,87.0196677 338.500243,112.670132 367.678977,125.061949 Z"/><g transform="translate(165.873 84.817)"><path fill="#00B394" fill-rule="nonzero" d="M337.531097,290.560225 L317.533097,241.251805 C312.08541,227.819618 302.912336,216.224133 291.094482,207.831322 C279.250841,199.420198 265.352822,194.368861 250.872446,193.212328 L167.584778,186.560225 L167.584778,186.560225 L84.4667583,193.238433 C70.2996769,194.376703 56.7274718,199.428896 45.2644407,207.831322 C33.8081745,216.22879 24.9519527,227.686462 19.7123713,240.889124 L0,290.560225 L0,290.560225"/><path fill="#FFA798" fill-rule="nonzero" d="M167.584778,186.560225 L211.002549,190.0292 C203.965992,217.181601 187.251788,230.757801 160.859938,230.757801 C134.827319,230.757801 118.111644,217.548669 110.712913,191.130404 L167.584778,186.560225 Z"/><path stroke="#018A72" stroke-width="4" d="M211.002549,190.0292 C203.965992,217.181601 187.251788,230.757801 160.859938,230.757801 C134.827319,230.757801 118.111644,217.548669 110.712913,191.130404"/><g transform="translate(90.92)"><path fill="#FFA798" d="M34.9401232,138.690242 L104.940123,138.690242 L104.940123,186.690242 C104.940123,206.020208 89.2700894,221.690242 69.9401232,221.690242 C50.6101569,221.690242 34.9401232,206.020208 34.9401232,186.690242 L34.9401232,138.690242 L34.9401232,138.690242 Z"/><path fill="#041046" d="M11.5227134,104.585528 C4.27253263,86.0207497 4.27253263,69.8310334 11.5227134,56.0163788 C3.73021614,41.1449097 4.75578373,28.6852817 14.5994162,18.6374947 C29.3648648,3.56581425 83.9401232,-14.215442 117.305013,18.2183936 C134.426728,21.032954 138.849678,32.2197255 130.573861,51.7787079 C138.309014,71.5363891 137.534134,89.1386624 128.24922,104.585528 L93.4261356,135.010884 L11.5227134,104.585528 Z"/><path stroke="#041046" stroke-linecap="round" d="M11.5227134,56.0163788 C4.42731826,69.9422742 3.17829112,82.5417712 7.77563201,93.8148697"/><path fill="#E38676" d="M104.940123,138.690242 L104.940123,158.016673 C89.3092623,183.559311 66.0141328,194.066105 35.0547344,189.537055 C34.9786128,188.597263 34.9401232,187.648247 34.9401232,186.690242 L34.9401232,138.690242 L104.940123,138.690242 Z"/><path fill="#FFA798" d="M135.387649,86.0147965 C128.748461,84.6559022 124.880722,90.5121696 123.784432,103.583599 L121.224447,83.631588 C112.343346,78.3236956 110.202506,64.2855476 114.801926,41.5171439 C84.1011411,61.777604 54.4123014,68.1599437 25.7354071,60.6641632 C27.7556418,71.2782539 25.4047688,78.9340622 18.6827883,83.631588 L18.6827883,103.583599 C15.1776522,93.2545045 10.9672864,88.0899574 6.05169098,88.0899574 C-1.32170218,88.0899574 -5.93623252,105.384799 16.6422411,115.752336 C23.166415,152.168375 40.1570289,171.165551 67.6140827,172.743865 C95.0711365,174.322178 114.273189,155.325002 125.220239,115.752336 C131.025947,112.830094 135.382202,108.773848 138.289004,103.583599 C142.649208,95.7982252 139.941553,86.9468795 135.387649,86.0147965 Z"/><path stroke="#041046" stroke-linecap="round" d="M114.801926 41.5171439C107.196332 65.4054203 109.816736 80.0407117 122.663138 85.423018M114.801926 41.5171439C83.289199 62.8509474 54.1335564 69.6629657 27.3349987 61.9531987"/><path fill="#E38676" d="M61.6607622,115.156434 C67.1191584,117.639301 72.7858251,117.639301 78.6607622,115.156434 C76.8101494,119.823101 73.976816,122.156434 70.1607622,122.156434 C66.3447083,122.156434 63.511375,119.823101 61.6607622,115.156434 Z"/><path stroke="#C87162" stroke-linecap="round" stroke-width="4" d="M50.0210796,138.690242 C62.4597542,131.707999 75.9377414,131.707999 90.4550414,138.690242"/><ellipse cx="92.44" cy="92.69" fill="#041046" rx="3.5" ry="5"/><ellipse cx="48.44" cy="92.69" fill="#041046" rx="3.5" ry="5"/><path fill="#FFF" d="M49 114C50.1045695 114 51 113.104569 51 112 51 111.26362 50.3333333 108.930287 49 105 47.6666667 108.930287 47 111.26362 47 112 47 113.104569 47.8954305 114 49 114zM92 114C93.1045695 114 94 113.104569 94 112 94 111.26362 93.3333333 108.930287 92 105 90.6666667 108.930287 90 111.26362 90 112 90 113.104569 90.8954305 114 92 114z"/><path stroke="#041046" stroke-linecap="round" stroke-width="5" d="M85.3587537,72.5536604 C89.3415554,80.5190995 96.7816602,85.1507433 107.679068,86.4485916" transform="rotate(-11 96.519 79.501)"/><path stroke="#041046" stroke-linecap="round" stroke-width="5" d="M38.3587537,72.5536604 C42.3415554,80.5190995 49.7816602,85.1507433 60.679068,86.4485916" transform="scale(-1 1) rotate(-11 0 593.775)"/><g stroke="#CE7768" stroke-linecap="round" stroke-width="2" transform="translate(127.702 92.69)"><path d="M2.46389088,-2.27373675e-13 C-0.821296959,10.0072642 -0.821296959,15.2607979 2.46389088,15.7606012"/><line x2="6.549" y1="11.678" y2="6.566"/></g><g stroke="#CE7768" stroke-linecap="round" stroke-width="2" transform="matrix(-1 0 0 1 16.334 95.02)"><path d="M5.21522369,0 C-1.12868558,11.8512287 -1.684945,16.9945878 3.54644544,15.4300771"/><line x1=".083" x2="6.632" y1="11.347" y2="6.236"/></g><path stroke="#C87162" stroke-linecap="round" d="M60.6607622,139.690242 C68.4745215,138.737766 74.1411882,138.737766 77.6607622,139.690242"/></g></g><g transform="rotate(10 -1264.794 611.756)"><path fill="#FFA798" d="M138.689407,46.962866 C129.87076,52.5174247 122.329086,57.206763 116.064385,61.0308808 C106.667333,66.7670575 98.7626224,79.1981845 81.9797655,74.5681318 L64.3791748,86.4211243 L40.6702426,43.9335801 C49.5096028,41.1330437 57.4125802,36.5405834 64.3791748,30.1561992 L105.937787,5.48038825 L118.636519,9.48082639 L138.689407,46.962866 Z"/><path fill="#CE7768" d="M76.913741,77.9800495 L64.3791748,86.4211243 L40.6702426,43.9335801 C45.0780208,42.5370827 49.2529625,40.6950139 53.1950675,38.4073735 C65.9416301,51.2165585 73.8477959,64.4076735 76.913741,77.9800495 Z"/><g transform="rotate(60 -4.76 59.748)"><path fill="#FDBF00" d="M-2.494005e-12,57 L0.153959772,4.22763967 C17.3360303,-1.40921322 36.5952957,-1.40921322 57.931756,4.22763967 L57.931756,54.6736743"/><path fill="#FFF" d="M27.0792495,15.6876017 C36.7546871,15.6876017 47.0385693,16.4988613 57.9309462,18.1213804 L57.9309462,21.1616104 C46.6944017,19.5122713 36.3923443,18.6876017 27.0247739,18.6876017 C17.3978898,18.6876017 8.42422457,19.5585604 0.103778335,21.3004776 L0.111274604,18.2539071 C8.1545502,16.5430368 17.1438752,15.6876017 27.0792495,15.6876017 Z"/></g><path fill="#FFA798" d="M90.8992067,11.2246705 C104.826743,3.74155685 113.150185,0 115.869533,0 C119.948555,0 124.892488,1.472162 123.62915,11.2246705 C130.027222,12.6608074 132.503427,16.8041047 131.057763,23.6545626 C137.53306,26.3482615 139.674063,31.0734358 137.480771,37.8300854 C140.484594,39.3236466 141.683245,41.6977249 141.076723,44.9523203 C140.16694,49.8342135 126.202239,57.1555728 122.350963,56.1700534 C118.499687,55.1845339 115.154177,48.519082 123.550139,44.3708828"/><path stroke="#CE7768" stroke-linecap="round" stroke-width="2" d="M90.8992067 11.2246705C104.826743 3.74155685 113.150185 0 115.869533 0 119.948555 0 124.892488 1.472162 123.62915 11.2246705 130.027222 12.6608074 132.503427 16.8041047 131.057763 23.6545626 137.53306 26.3482615 139.674063 31.0734358 137.480771 37.8300854 140.484594 39.3236466 141.683245 41.6977249 141.076723 44.9523203 140.16694 49.8342135 126.202239 57.1555728 122.350963 56.1700534 118.499687 55.1845339 115.154177 48.519082 123.550139 44.3708828M92.3240148 29.4384945C100.908825 36.1149145 105.20123 46.06984 105.20123 59.3032711"/><path stroke="#CE7768" stroke-linecap="round" stroke-width="2" d="M129.2348,25.6031548 L108.014676,36.4668662 C104.69832,38.1646856 100.633527,36.8526021 98.9357079,33.5362457 C98.8673831,33.4027867 98.8035266,33.2670869 98.7442447,33.1293725 C97.1419514,29.4071744 98.7123433,25.0808063 102.329167,23.2530516 L119.49486,14.5784031 L119.49486,14.5784031"/><path stroke="#CE7768" stroke-linecap="round" stroke-width="2" d="M135.2348,38.6031548 L117.824348,47.3399898 C114.467386,49.0245651 110.380413,47.6688283 108.695838,44.3118668 C108.636249,44.1931192 108.580152,44.0726508 108.52762,43.9506169 C106.93005,40.2393917 108.521638,35.927262 112.14724,34.1438858 L125.49486,27.5784031 L125.49486,27.5784031"/><path fill="#FFA798" d="M54.6333948,37.3229391 C61.6647285,33.7292343 67.4400512,28.0540537 71.9593631,20.2973975 C78.7383308,8.66241307 84.6764219,4.26426042 90.8386517,7.92403701 C97.0008814,11.5838136 101.021302,21.3125267 111.302464,25.9215807 C121.583627,30.5306347 107.548166,37.8646088 98.6934087,33.1936515 L92.3240148,29.4384945 C93.698694,41.055004 90.6482552,49.6737405 83.1726984,55.2947041"/><path stroke="#CE7768" stroke-linecap="round" stroke-width="2" d="M54.6333948,37.3229391 C61.6647285,33.7292343 67.4400512,28.0540537 71.9593631,20.2973975 C78.7383308,8.66241307 84.6764219,4.26426042 90.8386517,7.92403701 C97.0008814,11.5838136 102.021302,21.3125267 112.302464,25.9215807 C122.583627,30.5306347 108.548166,37.8646088 99.6934087,33.1936515 L92.3240148,29.4384945 C93.698694,41.055004 90.6482552,49.6737405 83.1726984,55.2947041"/><path stroke="#CE7768" stroke-linecap="round" stroke-width="2" d="M105.20123,21.332322 C103.215825,22.7332205 102.79865,24.0556871 103.949705,25.2997218 C105.10076,26.5437565 107.485774,27.4872038 111.104748,28.1300636"/></g><path fill="#D2D1D6" fill-rule="nonzero" d="M470.01605 180.055859L472.153087 186.047572C472.244571 186.304183 472.425724 186.5073 472.654304 186.610151L477.993009 189.008542C478.747166 189.34733 478.747166 190.545621 477.993009 190.884409L472.654304 193.2828C472.425724 193.385393 472.244571 193.588769 472.153087 193.845379L470.01605 199.837093C469.714128 200.683675 468.646387 200.683675 468.344465 199.837093L466.207428 193.845379C466.115944 193.588769 465.934791 193.385651 465.706211 193.2828L460.367506 190.884409C459.613349 190.545621 459.613349 189.34733 460.367506 189.008542L465.706211 186.610151C465.934791 186.507559 466.115944 186.304183 466.207428 186.047572L468.344465 180.055859C468.646387 179.209277 469.714128 179.209277 470.01605 180.055859zM444.387707 400.265449L447.230173 408.235005C447.351855 408.576322 447.592806 408.846488 447.896839 408.983289L454.997832 412.17338C456.000933 412.624001 456.000933 414.217843 454.997832 414.668464L447.896839 417.858555C447.592806 417.995013 447.351855 418.265523 447.230173 418.606839L444.387707 426.576395C443.986122 427.702431 442.565923 427.702431 442.164338 426.576395L439.321873 418.606839C439.200191 418.265523 438.95924 417.995357 438.655207 417.858555L431.554214 414.668464C430.551113 414.217843 430.551113 412.624001 431.554214 412.17338L438.655207 408.983289C438.95924 408.846831 439.200191 408.576322 439.321873 408.235005L442.164338 400.265449C442.565923 399.139413 443.986122 399.139413 444.387707 400.265449z" opacity=".5"/><circle cx="574" cy="166" r="14" fill="#D2D1D6" fill-rule="nonzero" opacity=".5"/><circle cx="124" cy="396" r="14" fill="#D2D1D6" fill-rule="nonzero" opacity=".2"/><g stroke="#E9EAEC" stroke-linecap="round" stroke-width="6" transform="rotate(15 30.456 975.585)"><line x1="64.387" x2="59.685" y2="24.155" transform="matrix(-1 0 0 1 124.072 0)"/><line x1="16.142" x2="47.331" y1="37.404" y2="6.776" transform="matrix(-1 0 0 1 63.474 0)"/><line x2="31.737" y1="55.078" y2="42.726" transform="matrix(-1 0 0 1 31.737 0)"/></g><path fill="#D2D1D6" fill-rule="nonzero" d="M58.3877073,221.265449 L61.2301727,229.235005 C61.3518548,229.576322 61.5928059,229.846488 61.8968387,229.983289 L68.9978316,233.17338 C70.000933,233.624001 70.000933,235.217843 68.9978316,235.668464 L61.8968387,238.858555 C61.5928059,238.995013 61.3518548,239.265523 61.2301727,239.606839 L58.3877073,247.576395 C57.986122,248.702431 56.5659235,248.702431 56.1643382,247.576395 L53.3218728,239.606839 C53.2001908,239.265523 52.9592396,238.995357 52.6552068,238.858555 L45.554214,235.668464 C44.5511125,235.217843 44.5511125,233.624001 45.554214,233.17338 L52.6552068,229.983289 C52.9592396,229.846831 53.2001908,229.576322 53.3218728,229.235005 L56.1643382,221.265449 C56.5659235,220.139413 57.986122,220.139413 58.3877073,221.265449 Z" opacity=".5"/><g transform="scale(-1 1) rotate(6 -2482.837 -5343.17)"><path fill="#FFA798" d="M138.689407,46.962866 C129.87076,52.5174247 122.329086,57.206763 116.064385,61.0308808 C106.667333,66.7670575 98.7626224,79.1981845 81.9797655,74.5681318 L64.3791748,86.4211243 L40.6702426,43.9335801 C49.5096028,41.1330437 57.4125802,36.5405834 64.3791748,30.1561992 L105.937787,5.48038825 L118.636519,9.48082639 L138.689407,46.962866 Z"/><path fill="#CE7768" d="M76.913741,77.9800495 L64.3791748,86.4211243 L40.6702426,43.9335801 C45.0780208,42.5370827 49.2529625,40.6950139 53.1950675,38.4073735 C65.9416301,51.2165585 73.8477959,64.4076735 76.913741,77.9800495 Z"/><g transform="rotate(60 -4.76 59.748)"><path fill="#D2D1D6" d="M-2.494005e-12,57 L0.153959772,4.22763967 C17.3360303,-1.40921322 36.5952957,-1.40921322 57.931756,4.22763967 L57.931756,54.6736743"/><path fill="#FFF" d="M27.0792495,15.6876017 C36.7546871,15.6876017 47.0385693,16.4988613 57.9309462,18.1213804 L57.9309462,21.1616104 C46.6944017,19.5122713 36.3923443,18.6876017 27.0247739,18.6876017 C17.3978898,18.6876017 8.42422457,19.5585604 0.103778335,21.3004776 L0.111274604,18.2539071 C8.1545502,16.5430368 17.1438752,15.6876017 27.0792495,15.6876017 Z"/></g><path fill="#FFA798" d="M90.8992067,11.2246705 C104.826743,3.74155685 113.150185,0 115.869533,0 C119.948555,0 124.892488,1.472162 123.62915,11.2246705 C130.027222,12.6608074 132.503427,16.8041047 131.057763,23.6545626 C137.53306,26.3482615 139.674063,31.0734358 137.480771,37.8300854 C140.484594,39.3236466 141.683245,41.6977249 141.076723,44.9523203 C140.16694,49.8342135 126.202239,57.1555728 122.350963,56.1700534 C118.499687,55.1845339 115.154177,48.519082 123.550139,44.3708828"/><path stroke="#CE7768" stroke-linecap="round" stroke-width="2" d="M90.8992067 11.2246705C104.826743 3.74155685 113.150185 0 115.869533 0 119.948555 0 124.892488 1.472162 123.62915 11.2246705 130.027222 12.6608074 132.503427 16.8041047 131.057763 23.6545626 137.53306 26.3482615 139.674063 31.0734358 137.480771 37.8300854 140.484594 39.3236466 141.683245 41.6977249 141.076723 44.9523203 140.16694 49.8342135 126.202239 57.1555728 122.350963 56.1700534 118.499687 55.1845339 115.154177 48.519082 123.550139 44.3708828M92.3240148 29.4384945C100.908825 36.1149145 105.20123 46.06984 105.20123 59.3032711"/><path stroke="#CE7768" stroke-linecap="round" stroke-width="2" d="M129.2348,25.6031548 L108.014676,36.4668662 C104.69832,38.1646856 100.633527,36.8526021 98.9357079,33.5362457 C98.8673831,33.4027867 98.8035266,33.2670869 98.7442447,33.1293725 C97.1419514,29.4071744 98.7123433,25.0808063 102.329167,23.2530516 L119.49486,14.5784031 L119.49486,14.5784031"/><path stroke="#CE7768" stroke-linecap="round" stroke-width="2" d="M135.2348,38.6031548 L117.824348,47.3399898 C114.467386,49.0245651 110.380413,47.6688283 108.695838,44.3118668 C108.636249,44.1931192 108.580152,44.0726508 108.52762,43.9506169 C106.93005,40.2393917 108.521638,35.927262 112.14724,34.1438858 L125.49486,27.5784031 L125.49486,27.5784031"/><path fill="#FFA798" d="M54.6333948,37.3229391 C61.6647285,33.7292343 67.4400512,28.0540537 71.9593631,20.2973975 C78.7383308,8.66241307 84.6764219,4.26426042 90.8386517,7.92403701 C97.0008814,11.5838136 101.021302,21.3125267 111.302464,25.9215807 C121.583627,30.5306347 107.548166,37.8646088 98.6934087,33.1936515 L92.3240148,29.4384945 C93.698694,41.055004 90.6482552,49.6737405 83.1726984,55.2947041"/><path stroke="#CE7768" stroke-linecap="round" stroke-width="2" d="M54.6333948,37.3229391 C61.6647285,33.7292343 67.4400512,28.0540537 71.9593631,20.2973975 C78.7383308,8.66241307 84.6764219,4.26426042 90.8386517,7.92403701 C97.0008814,11.5838136 102.021302,21.3125267 112.302464,25.9215807 C122.583627,30.5306347 108.548166,37.8646088 99.6934087,33.1936515 L92.3240148,29.4384945 C93.698694,41.055004 90.6482552,49.6737405 83.1726984,55.2947041"/><path stroke="#CE7768" stroke-linecap="round" stroke-width="2" d="M105.20123,21.332322 C103.215825,22.7332205 102.79865,24.0556871 103.949705,25.2997218 C105.10076,26.5437565 107.485774,27.4872038 111.104748,28.1300636"/></g><g transform="translate(299.1 344.027)"><path fill="#FFA798" d="M13.9293135,129.060917 C12.8185654,116.089649 10.5961386,107.05471 7.26203324,101.956097 C2.26087516,94.3081776 -7.76294054,66.9592863 10.5956734,68.3002821 L15.3779644,5.01391324 C15.5916804,2.18570706 17.9487839,3.04012762e-15 20.7850534,0 C23.6158732,1.9942599e-15 25.9631463,2.19227047 26.1562378,5.01649717 L29.151391,48.8246973 L29.151391,48.8246973 C36.5605422,45.8020069 41.7832504,46.3954152 44.8195156,50.6049225 C50.1797071,48.6916181 55.1970522,49.8363926 59.8715509,54.0392457 C67.3302961,53.7195261 71.0596688,57.216597 71.0596688,64.5304583 C71.0596688,75.5012502 63.4279891,100.881034 62.1345921,108.072468 C61.2723275,112.866757 61.2723275,119.862907 62.1345921,129.060917 L13.9293135,129.060917 Z"/><path fill="#CE7768" d="M61.702599,123.514022 L61.7046541,123.544415 C61.8097501,125.28566 61.9530628,127.124493 62.1345921,129.060917 L13.9293135,129.060917 C13.7239232,126.908926 13.4805219,124.868733 13.1991098,122.940338 C29.6432507,119.227925 45.8112463,119.419276 61.702599,123.514022 Z"/><path fill="#FF6868" d="M8.70889504,182.312398 L8.86285482,129.540038 C26.0449253,123.903185 45.3041907,123.903185 66.640651,129.540038 L66.640651,179.986073"/><path fill="#FFF" d="M35.7881446,141 C45.4635822,141 55.7474644,141.81126 66.6398413,143.433779 L66.6398413,146.474009 C55.4032967,144.82467 45.1012393,144 35.733669,144 C26.1067848,144 17.1331196,144.870959 8.81267338,146.612876 L8.82016965,143.566305 C16.8634452,141.855435 25.8527702,141 35.7881446,141 Z"/><line x1="10.596" x2="9.592" y1="68.3" y2="84.377" stroke="#CE7768" stroke-linecap="round" stroke-width="2"/><line x1="29.077" x2="29.686" y1="47.581" y2="57.294" stroke="#CE7768" stroke-linecap="round" stroke-width="2"/><line x1="44.82" x2="44.82" y1="50.605" y2="55.079" stroke="#CE7768" stroke-linecap="round" stroke-width="2"/><line x1="59.872" x2="59.872" y1="54.039" y2="57.294" stroke="#CE7768" stroke-linecap="round" stroke-width="2"/><path stroke="#CE7768" stroke-linecap="round" stroke-width="2" d="M22.5052261,11.6047719 L17.5921785,11.6047719 C16.9830158,5.60904121 18.0718338,2.61117588 20.8586324,2.61117588"/></g><g transform="rotate(-123 256.416 -36.357)"><path fill="#FFA798" d="M13.9293135,129.060917 C12.8185654,116.089649 10.5961386,107.05471 7.26203324,101.956097 C2.26087516,94.3081776 -7.76294054,66.9592863 10.5956734,68.3002821 L15.3779644,5.01391324 C15.5916804,2.18570706 17.9487839,-1.81594928e-12 20.7850534,-1.8189894e-12 C23.6158732,-1.81699514e-12 25.9631463,2.19227047 26.1562378,5.01649717 L29.151391,48.8246973 L29.151391,48.8246973 C36.5605422,45.8020069 41.7832504,46.3954152 44.8195156,50.6049225 C50.1797071,48.6916181 55.1970522,49.8363926 59.8715509,54.0392457 C67.3302961,53.7195261 71.0596688,57.216597 71.0596688,64.5304583 C71.0596688,75.5012502 63.4279891,100.881034 62.1345921,108.072468 C61.2723275,112.866757 61.2723275,119.862907 62.1345921,129.060917 L13.9293135,129.060917 Z"/><path fill="#CE7768" d="M61.702599,123.514022 L61.7046541,123.544415 C61.8097501,125.28566 61.9530628,127.124493 62.1345921,129.060917 L13.9293135,129.060917 C13.7239232,126.908926 13.4805219,124.868733 13.1991098,122.940338 C29.6432507,119.227925 45.8112463,119.419276 61.702599,123.514022 Z"/><path fill="#0066B3" d="M8.70889504,182.312398 L8.86285482,129.540038 C26.0449253,123.903185 45.3041907,123.903185 66.640651,129.540038 L66.640651,179.986073"/><path fill="#FFF" d="M35.7881446,141 C45.4635822,141 55.7474644,141.81126 66.6398413,143.433779 L66.6398413,146.474009 C55.4032967,144.82467 45.1012393,144 35.733669,144 C26.1067848,144 17.1331196,144.870959 8.81267338,146.612876 L8.82016965,143.566305 C16.8634452,141.855435 25.8527702,141 35.7881446,141 Z"/><line x1="10.596" x2="9.592" y1="68.3" y2="84.377" stroke="#CE7768" stroke-linecap="round" stroke-width="2"/><line x1="29.077" x2="29.686" y1="47.581" y2="57.294" stroke="#CE7768" stroke-linecap="round" stroke-width="2"/><line x1="44.82" x2="44.82" y1="50.605" y2="55.079" stroke="#CE7768" stroke-linecap="round" stroke-width="2"/><line x1="59.872" x2="59.872" y1="54.039" y2="57.294" stroke="#CE7768" stroke-linecap="round" stroke-width="2"/><path stroke="#CE7768" stroke-linecap="round" stroke-width="2" d="M22.5052261,11.6047719 L17.5921785,11.6047719 C16.9830158,5.60904121 18.0718338,2.61117588 20.8586324,2.61117588"/></g><g transform="scale(1 -1) rotate(57 257.7 125.692)"><path fill="#FFA798" d="M13.9293135,129.060917 C12.8185654,116.089649 10.5961386,107.05471 7.26203324,101.956097 C2.26087516,94.3081776 -7.76294054,66.9592863 10.5956734,68.3002821 L15.3779644,5.01391324 C15.5916804,2.18570706 17.9487839,3.04012762e-15 20.7850534,0 C23.6158732,1.9942599e-15 25.9631463,2.19227047 26.1562378,5.01649717 L29.151391,48.8246973 L29.151391,48.8246973 C36.5605422,45.8020069 41.7832504,46.3954152 44.8195156,50.6049225 C50.1797071,48.6916181 55.1970522,49.8363926 59.8715509,54.0392457 C67.3302961,53.7195261 71.0596688,57.216597 71.0596688,64.5304583 C71.0596688,75.5012502 63.4279891,100.881034 62.1345921,108.072468 C61.2723275,112.866757 61.2723275,119.862907 62.1345921,129.060917 L13.9293135,129.060917 Z"/><path fill="#CE7768" d="M61.702599,123.514022 L61.7046541,123.544415 C61.8097501,125.28566 61.9530628,127.124493 62.1345921,129.060917 L13.9293135,129.060917 C13.7239232,126.908926 13.4805219,124.868733 13.1991098,122.940338 C29.6432507,119.227925 45.8112463,119.419276 61.702599,123.514022 Z"/><path fill="#8183A8" fill-rule="nonzero" d="M8.70889504,182.312398 L8.86285482,129.540038 C26.0449253,123.903185 45.3041907,123.903185 66.640651,129.540038 L66.640651,179.986073"/><path fill="#FFF" d="M35.7881446,141 C45.4635822,141 55.7474644,141.81126 66.6398413,143.433779 L66.6398413,146.474009 C55.4032967,144.82467 45.1012393,144 35.733669,144 C26.1067848,144 17.1331196,144.870959 8.81267338,146.612876 L8.82016965,143.566305 C16.8634452,141.855435 25.8527702,141 35.7881446,141 Z"/><line x1="10.596" x2="9.592" y1="68.3" y2="84.377" stroke="#CE7768" stroke-linecap="round" stroke-width="2"/><line x1="29.077" x2="29.686" y1="47.581" y2="57.294" stroke="#CE7768" stroke-linecap="round" stroke-width="2"/><line x1="44.82" x2="44.82" y1="50.605" y2="55.079" stroke="#CE7768" stroke-linecap="round" stroke-width="2"/><line x1="59.872" x2="59.872" y1="54.039" y2="57.294" stroke="#CE7768" stroke-linecap="round" stroke-width="2"/><path stroke="#CE7768" stroke-linecap="round" stroke-width="2" d="M22.5052261,11.6047719 L17.5921785,11.6047719 C16.9830158,5.60904121 18.0718338,2.61117588 20.8586324,2.61117588"/></g></g></svg>