<?xml version="1.0" encoding="UTF-8" standalone="no"?> <svg id="filled_colour_copy" data-name="filled colour copy" xmlns="http://www.w3.org/2000/svg" viewBox="0 0 512 512"><defs><style>.cls-1{fill:#616161;}.cls-2,.cls-3,.cls-7,.cls-8{fill:none;stroke-width:8px;}.cls-2,.cls-8{stroke:#c62828;stroke-linejoin:round;}.cls-3,.cls-7{stroke:#5e92f3;stroke-miterlimit:10;}.cls-4{fill:#1565c0;}.cls-5{fill:#0d47a1;}.cls-6{fill:#bdbdbd;}.cls-7,.cls-8{stroke-linecap:round;}</style></defs><polygon class="cls-1" points="456 352 456 424 288 424 224 424 56 424 56 352 456 352"/><line class="cls-2" x1="112" y1="376" x2="112" y2="400"/><line class="cls-3" x1="152" y1="376" x2="152" y2="400"/><line class="cls-2" x1="192" y1="376" x2="192" y2="400"/><line class="cls-3" x1="232" y1="376" x2="232" y2="400"/><line class="cls-2" x1="272" y1="376" x2="272" y2="400"/><line class="cls-3" x1="312" y1="376" x2="312" y2="400"/><line class="cls-2" x1="352" y1="376" x2="352" y2="400"/><rect class="cls-4" x="56" y="56" width="400" height="232"/><path class="cls-5" d="M104,264q-24.42,0-48-2.08V288H456V77.69C421.19,184.17,276.82,264,104,264Z"/><rect class="cls-6" x="224" y="424" width="64" height="32"/><path class="cls-1" d="M472,488H40a32,32,0,0,1,32-32H440A32,32,0,0,1,472,488Z"/><path class="cls-6" d="M488,320v88a16,16,0,0,1-16,16H456V352H56v72H40a16,16,0,0,1-16-16V320Z"/><path class="cls-6" d="M488,40V320H24V40A16,16,0,0,1,40,24H472A16,16,0,0,1,488,40ZM456,288V56H56V288Z"/><line class="cls-3" x1="424" y1="80" x2="424" y2="160"/><line class="cls-2" x1="424" y1="184" x2="424" y2="264"/><polyline class="cls-7" points="384 132 342.42 132 329.98 150.66 319.47 166.43 309.71 150.17 293.62 123.35 288.49 128.49 284.97 132 280 132 214.42 132 201.98 150.66 189.33 169.64 180.86 148.46 171.62 125.35 168.49 128.49 164.97 132 160 132 96 132"/><path class="cls-8" d="M374,222.66l-16.41-24.61-9.9,44.55h0A12,12,0,0,1,326,246.66h0l-34.39-51.59-16.25,48.72h0a12,12,0,0,1-20.85,3.57h0L214.18,195.5l-10.47,47.1h0a12,12,0,0,1-21.18,4.77h0L142.18,195.5l-10.47,47.1h0a12,12,0,0,1-22,3.57h0l-24-40"/><path d="M396,408a20,20,0,1,0-20-20A20,20,0,0,0,396,408Zm0-24a4,4,0,1,1-4,4A4,4,0,0,1,396,384Z"/><rect x="88" y="376" width="16" height="24"/><rect x="128" y="376" width="16" height="24"/><rect x="168" y="376" width="16" height="24"/><rect x="208" y="376" width="16" height="24"/><rect x="248" y="376" width="16" height="24"/><rect x="288" y="376" width="16" height="24"/><rect x="328" y="376" width="16" height="24"/><path d="M472,16H40A24,24,0,0,0,16,40V408a24,24,0,0,0,24,24H216v16H72a40,40,0,0,0-40,40,8,8,0,0,0,8,8H472a8,8,0,0,0,8-8,40,40,0,0,0-40-40H296V432H472a24,24,0,0,0,24-24V40A24,24,0,0,0,472,16ZM40,32H472a8,8,0,0,1,8,8V312H32V40A8,8,0,0,1,40,32ZM462.63,480H49.36A24,24,0,0,1,72,464H440A24,24,0,0,1,462.63,480ZM232,448V432h48v16Zm216-32H64V360H448Zm32-8a8,8,0,0,1-8,8h-8V352a8,8,0,0,0-8-8H56a8,8,0,0,0-8,8v64H40a8,8,0,0,1-8-8V328H480Z"/><path d="M56,296H456a8,8,0,0,0,8-8V56a8,8,0,0,0-8-8H56a8,8,0,0,0-8,8V288A8,8,0,0,0,56,296ZM64,64H448V280H64Z"/><rect x="400" y="80" width="16" height="80"/><rect x="400" y="184" width="16" height="80"/><path d="M165.66,125.66l7.42-7.42L184.57,147a8,8,0,0,0,6.6,5,7.81,7.81,0,0,0,.83,0,8,8,0,0,0,6.66-3.56L212.28,128H280a8,8,0,0,0,5.66-2.34l8.75-8.76,18.73,31.22a8,8,0,0,0,13.52.32L340.28,128H384V112H336a8,8,0,0,0-6.66,3.56l-9,13.48-17.5-29.16a8,8,0,0,0-12.52-1.54L276.69,112H208a8,8,0,0,0-6.66,3.56l-7.56,11.35L183.43,101a8,8,0,0,0-13.09-2.69L156.69,112H96v16h64A8,8,0,0,0,165.66,125.66Z"/><path d="M350.53,160.14a8,8,0,0,0-6.34,6.12L332.26,220l-37.6-56.4a8,8,0,0,0-14.25,1.91l-19.27,57.82-46.83-60.2a8,8,0,0,0-14.12,3.17l-12.31,55.41-45.57-58.58a8,8,0,0,0-14.12,3.17l-11.65,52.43-13.68-22.81-13.72,8.24,24,40a8,8,0,0,0,14.67-2.38l12.31-55.41,45.57,58.58a8,8,0,0,0,14.12-3.17l12.31-55.41,45.57,58.58a8,8,0,0,0,13.9-2.38l18.83-56.48,38.92,58.39a8,8,0,0,0,14.47-2.7L355.74,188l21.6,32.4,13.32-8.88-32-48A8,8,0,0,0,350.53,160.14Z"/></svg>