<?xml version="1.0" encoding="UTF-8"?>
<!DOCTYPE svg PUBLIC "-//W3C//DTD SVG 1.1//EN" "http://www.w3.org/Graphics/SVG/1.1/DTD/svg11.dtd">
<!-- Creator: CorelDRAW -->
<svg xmlns="http://www.w3.org/2000/svg" xml:space="preserve" width="1.70666in" height="1.70666in" version="1.1" style="shape-rendering:geometricPrecision; text-rendering:geometricPrecision; image-rendering:optimizeQuality; fill-rule:evenodd; clip-rule:evenodd"
viewBox="0 0 1706.66 1706.66"
 xmlns:xlink="http://www.w3.org/1999/xlink"
 xmlns:xodm="http://www.corel.com/coreldraw/odm/2003">
 <defs>
  <style type="text/css">
   <![CDATA[
    .fil3 {fill:#A2B2CD}
    .fil1 {fill:#D6E3FF}
    .fil0 {fill:#F5648F}
    .fil4 {fill:#FF9500}
    .fil2 {fill:#FFB800}
   ]]>
  </style>
 </defs>
 <g id="Layer_x0020_1">
  <metadata id="CorelCorpID_0Corel-Layer"/>
  <path class="fil0" d="M1339.2 1706.64l-971.77 0c-42.72,0 -77.47,-34.76 -77.47,-77.47l0 -1346c0,-42.72 34.75,-77.48 77.47,-77.48 330.63,0 641.16,0 971.78,0 42.72,0 77.48,34.75 77.48,77.48l0 1346c-0.01,42.72 -34.76,77.47 -77.49,77.47z"/>
  <path class="fil1" d="M1281.72 1591.7l-856.81 0c-11.04,0 -20,-8.97 -20,-20l0 -1231.05c0,-11.04 8.96,-20 20,-20 288.64,0 568.17,0 856.81,0 11.04,0 20,8.96 20,20l0 1231.04c0,11.06 -8.96,20.01 -20,20.01z"/>
  <path class="fil2" d="M1097.62 449.51l-488.59 0c-11.04,0 -20,-8.96 -20,-20l0 -283.8c0,-11.04 8.96,-20 20,-20l105.25 0c7.07,-70.49 66.72,-125.69 139.04,-125.69 72.32,0 131.98,55.2 139.06,125.69l105.25 0c11.04,0 20,8.96 20,20l0 283.8c0,11.04 -8.96,20 -20,20zm-244.3 -258.81c-82.81,0 -82.82,-125.85 0,-125.85 82.83,0 82.82,125.85 0,125.85z"/>
  <path class="fil3" d="M1158.67 749.37l-337.69 0c-26.33,0 -26.33,-40 0,-40l337.69 0c26.33,0 26.33,40 0,40z"/>
  <path class="fil3" d="M1158.67 860.73l-294.58 0c-26.33,0 -26.33,-40 0,-40l294.58 0c26.33,0 26.33,40 0,40z"/>
  <path class="fil3" d="M698.84 880.49l-150.88 0c-11.04,0 -20,-8.97 -20,-20l0 -150.89c0,-11.04 8.96,-20 20,-20l150.88 0c11.04,0 20,8.96 20,20l0 150.89c0,11.04 -8.94,20 -20,20zm-84.43 -58.46c-10.82,0 -49.66,-27.97 -30.68,-48.43 8.41,-9.06 20.36,-8.39 30.15,0.68 13.71,-13.7 31.07,-37.92 48.64,-20.35 19.02,19.02 -11.72,39.98 -33.97,62.25 -3.89,3.89 -9.01,5.85 -14.14,5.85z"/>
  <path class="fil3" d="M1158.67 1036.78l-337.69 0c-26.33,0 -26.33,-40 0,-40l337.69 0c26.33,0 26.33,40 0,40z"/>
  <path class="fil3" d="M1158.67 1148.14l-294.58 0c-26.32,0 -26.32,-40 0,-40l294.58 0c26.33,0 26.33,40 0,40z"/>
  <path class="fil3" d="M698.84 1167.89l-150.88 0c-11.04,0 -20,-8.97 -20,-20l0 -150.87c0,-11.04 8.96,-20 20,-20l150.88 0c11.04,0 20,8.97 20,20l0 150.87c0,11.04 -8.94,20 -20,20z"/>
  <path class="fil3" d="M1158.67 1324.18l-337.69 0c-26.33,0 -26.33,-40 0,-40l337.69 0c26.33,0 26.33,40 0,40z"/>
  <path class="fil3" d="M1158.67 1435.54l-294.58 0c-26.32,0 -26.32,-40 0,-40l294.58 0c26.33,0 26.33,40 0,40z"/>
  <path class="fil3" d="M698.84 1455.3l-150.88 0c-11.04,0 -20,-8.97 -20,-20l0 -150.89c0,-11.04 8.96,-20 20,-20l150.88 -0c11.04,0 20,8.97 20,20l0 150.89c0,11.03 -8.94,20 -20,20z"/>
  <path class="fil3" d="M1015.18 585.91l-290.98 0c-26.33,0 -26.33,-40 0,-40l290.98 0c26.33,0 26.33,40 0,40z"/>
  <path class="fil4" d="M1006.9 307.61l-307.17 0c-26.33,0 -26.33,-40 0,-40l307.15 0c26.33,0 26.33,40 0.02,40z"/>
  <path class="fil1" d="M614.41 822.03c-10.82,0 -49.66,-27.97 -30.68,-48.43 8.41,-9.06 20.36,-8.39 30.15,0.68 13.71,-13.7 31.07,-37.92 48.64,-20.35 19.02,19.02 -11.72,39.98 -33.97,62.25 -3.89,3.89 -9.01,5.85 -14.14,5.85z"/>
  <path class="fil1" d="M614.41 1109.43c-10.8,0 -49.67,-27.95 -30.68,-48.43 8.38,-9.04 20.38,-8.44 30.15,0.68 13.67,-13.67 31.08,-37.96 48.65,-20.36 19.01,19.04 -11.76,40.06 -33.97,62.25 -3.9,3.89 -9.03,5.86 -14.15,5.86z"/>
 </g>
</svg>
