<svg xmlns="http://www.w3.org/2000/svg" viewBox="0 0 128 128"><path fill="#f7bd76" d="M99.97,36.72a16.393,16.393,0,0,1-2.44.18,15.543,15.543,0,0,1-3.56-.4A16.026,16.026,0,0,1,81.5,20.87c0-.26.01-.51.02-.76A16.029,16.029,0,1,1,99.97,36.72Z"/><path fill="#a7b4cc" d="M40.02 35.97V59.15c-6.88 0-15.22 1.75-19.99-4.54-3.23-4.26-4.41-9.96-4.41-15.22 0-5.08 1.1-10.51 4.06-14.73a11.636 11.636 0 0 1 4.38-3.95c2.42-1.14 5.16-.6 7.72-.6h12c.41 0 2.29.29 2.62 0a18.9 18.9 0 0 0-6.38 14.18zM85.39 31.34a15.987 15.987 0 0 0 8.58 5.16 15.543 15.543 0 0 0 3.56.4 16.393 16.393 0 0 0 2.44-.18c.09 1.12.14 2.27.14 3.44a32.693 32.693 0 0 1-2.18 12.5 12.819 12.819 0 0 1-2.43 3.96c-3.18 3.29-8.01 2.53-12.13 2.53h-5.4V34.29a18.966 18.966 0 0 0-5.55-13.42c-.27-.26-.53-.52-.82-.76h9.92c-.01.25-.02.5-.02.76A15.978 15.978 0 0 0 85.39 31.34z"/><polygon fill="#8087a0" points="102.63 79.21 103.66 123.16 14.44 123.16 15.48 79.21 36.36 79.21 81.42 79.21 102.63 79.21"/><path fill="#f7bd76" d="M40.44,66.25a14.99,14.99,0,0,1,8.26-4.52l.06.31v.01c.18.32,2.47,6.99,10.95,6.86,8.85-.13,10.83-6.6,10.83-6.6l.09-.39a15.056,15.056,0,0,1,7.34,4.29v.01c2.54,2.7,3.45,8.74,3.45,12.76v.23H36.36V76.57a15,15,0,0,1,3.66-9.86C40.16,66.55,40.29,66.4,40.44,66.25Z"/><path fill="#f6f8f9" d="M59.9,56.91a12.664,12.664,0,0,0,2.91-.33v4.9h4.18a15,15,0,0,1,3.64.44l-.09.39s-1.98,6.47-10.83,6.6c-8.48.13-10.77-6.54-10.95-6.86v-.01l-.06-.31a14.653,14.653,0,0,1,2.75-.25h4.46V56.49a14.128,14.128,0,0,0,3.33.42,3.54,3.54,0,0,0,.46-.02A.68.68,0,0,0,59.9,56.91Z"/><path fill="#8087a0" d="M65.58,43.36a11.552,11.552,0,0,1,1.29,2.93,1.29,1.29,0,0,1-2.58,0A11.552,11.552,0,0,1,65.58,43.36Z"/><path fill="#f6f8f9" d="M73.52 39.87a4.025 4.025 0 1 1 .03 8.05 3.573 3.573 0 0 1-1.47-.29 13.881 13.881 0 0 0 .69-4.3l-.02-3.39A4.9 4.9 0 0 1 73.52 39.87zM45.68 43.39a13.366 13.366 0 0 0 .74 4.4 3.56 3.56 0 0 1-1.18.19 4.025 4.025 0 1 1-.03-8.05c.15 0 .3.01.46.01z"/><path fill="#f6f8f9" d="M64.9,42.63a1.535,1.535,0,1,0-1.53-1.53A1.53,1.53,0,0,0,64.9,42.63Zm.68.73a11.552,11.552,0,0,0-1.29,2.93,1.29,1.29,0,0,0,2.58,0A11.552,11.552,0,0,0,65.58,43.36ZM59.7,56.89a3.54,3.54,0,0,1-.46.02,14.128,14.128,0,0,1-3.33-.42c-.21-.05-.44-.11-.66-.17a13.583,13.583,0,0,1-8.83-8.53,13.366,13.366,0,0,1-.74-4.4l-.01-3.45-.02-8.67s15.8,1.42,19.4-4.1c1.38,2.02,3.49,2.94,7.69,4.03l.01,8.74.02,3.39a13.881,13.881,0,0,1-.69,4.3,13.538,13.538,0,0,1-9.45,8.83,3.367,3.367,0,0,1-.48.12A11.653,11.653,0,0,1,59.7,56.89ZM52.52,39.56a1.535,1.535,0,1,0,1.53,1.54A1.541,1.541,0,0,0,52.52,39.56Z"/><path fill="#7c86bb" d="M45.24 47.98a3.56 3.56 0 0 0 1.18-.19 13.583 13.583 0 0 0 8.83 8.53c.22.06.45.12.66.17v4.99H51.45a14.653 14.653 0 0 0-2.75.25 14.99 14.99 0 0 0-8.26 4.52l-.26-.24-.16-6.86V43.98h1.17A4.016 4.016 0 0 0 45.24 47.98zM62.81 56.58a12.664 12.664 0 0 1-2.91.33.68.68 0 0 1-.2-.02 11.653 11.653 0 0 0 2.45-.31 3.367 3.367 0 0 0 .48-.12 13.538 13.538 0 0 0 9.45-8.83 3.573 3.573 0 0 0 1.47.29 4.044 4.044 0 0 0 4.02-4.04h.4V66.21a15.044 15.044 0 0 0-10.98-4.73H62.81z"/><path fill="#7c86bb" d="M45.65,31.27l.02,8.67c-.16,0-.31-.01-.46-.01a4.039,4.039,0,0,0-4.02,4.05H40.02V34.29A19.006,19.006,0,0,1,58.99,15.31c.18,0,.37,0,.55.01a18.942,18.942,0,0,1,12.05,4.79h.01c.29.24.55.5.82.76a18.966,18.966,0,0,1,5.55,13.42v9.59h-.4a4.025,4.025,0,0,0-4.05-4.01,4.9,4.9,0,0,0-.77.07l-.01-8.74c-4.2-1.09-6.31-2.01-7.69-4.03C61.45,32.69,45.65,31.27,45.65,31.27Z"/><path fill="#231f20" d="M64.9 39.56a1.535 1.535 0 1 1-1.53 1.54A1.532 1.532 0 0 1 64.9 39.56zM52.52 39.56a1.535 1.535 0 1 1-1.54 1.54A1.539 1.539 0 0 1 52.52 39.56z"/><path fill="#a7b4cc" d="M56.077,46.631a9.634,9.634,0,0,1,4.569-.349,2.17,2.17,0,0,0,2.555-1.31,1.878,1.878,0,0,0-1.451-2.306,14.364,14.364,0,0,0-6.778.349,1.893,1.893,0,1,0,1.1,3.616Z"/><path fill="#2c3656" d="M53.64 35.505C52.213 37.53 49 37.131 48.974 37.127a.5.5 0 0 0-.134.991 6.69 6.69 0 0 0 .849.048 5.743 5.743 0 0 0 4.769-2.084.5.5 0 0 0-.818-.577zM63.629 50.706c-4.086-2.524-8.34-.111-8.52-.007a.5.5 0 1 0 .5.864c.04-.022 3.906-2.22 7.493-.007a.5.5 0 1 0 .525-.85zM65.15 43.111a10.306 10.306 0 0 0-1.361 3.175 1.793 1.793 0 0 0 3.586 0 10.306 10.306 0 0 0-1.361-3.175A.521.521 0 0 0 65.15 43.111zm.432 3.968a.794.794 0 0 1-.793-.793 7.1 7.1 0 0 1 .793-1.894 7.09 7.09 0 0 1 .793 1.894A.794.794 0 0 1 65.582 47.079z"/><circle cx="52.516" cy="41.096" r="1.534" fill="#2c3656"/><path fill="#2c3656" d="M68.441,37.127c-.031,0-3.24.4-4.666-1.622a.5.5,0,0,0-.818.577,5.743,5.743,0,0,0,4.769,2.084,6.69,6.69,0,0,0,.849-.048.5.5,0,0,0-.134-.991Z"/><circle cx="64.9" cy="41.096" r="1.534" fill="#2c3656"/><path fill="#2c3656" d="M59.321,46.712a.377.377,0,0,0,.058,0,.5.5,0,0,0,.056-1,.941.941,0,0,1-.786-.477c-.734-1.323.6-4.767,1.18-5.983a.5.5,0,1,0-.9-.429c-.236.494-2.266,4.89-1.152,6.9A1.932,1.932,0,0,0,59.321,46.712Z"/><path fill="#2c3656" d="M114.56,20.867A17.02,17.02,0,0,0,80.61,19.11H71.948a20.038,20.038,0,0,0-9.411-4.476,7.289,7.289,0,0,1,1.747-.27,1,1,0,0,0-.08-2,7.594,7.594,0,0,0-5.08,1.954c-.044,0-.087-.006-.131-.006a19.9,19.9,0,0,0-13.1,4.915,11.69,11.69,0,0,1-1.461-.072c-.292-.027-.531-.047-.655-.047H33.68c-1.229,0-2.454,0-3.712-.065-2.1-.109-4.27-.218-6.334.762a12.484,12.484,0,0,0-4.777,4.277c-3.5,5.013-4.241,11.089-4.241,15.3,0,6.279,1.641,11.9,4.619,15.828,3.328,4.387,8.242,5.152,13.11,5.152,1.338,0,2.673-.058,3.97-.114.946-.041,1.846-.073,2.732-.091l.133,5.862a.873.873,0,0,0,.023.1,16.062,16.062,0,0,0-3.846,10.436v1.641H15.477a1,1,0,0,0-1,.977L13.44,123.137a1,1,0,0,0,1,1.023h89.224a1,1,0,0,0,1-1.023l-1.036-43.952a1,1,0,0,0-1-.977H82.405c-.1-4.148-1.051-9.506-3.432-12.351v-5.71h4.4c.633,0,1.284.019,1.942.037.684.019,1.384.039,2.09.039,3.128,0,6.377-.387,8.818-2.912a13.4,13.4,0,0,0,2.629-4.267,33.459,33.459,0,0,0,2.262-12.887c0-.866-.037-1.748-.093-2.632A17.133,17.133,0,0,0,114.56,20.867Zm-67.5-.008h0a17.891,17.891,0,0,1,10.546-4.48,8.113,8.113,0,0,0-.838,3.463,1,1,0,0,0,1,1h0a1,1,0,0,0,1-.994,6.178,6.178,0,0,1,1.184-3.486,17.994,17.994,0,0,1,10.975,4.5c.023.02.048.038.073.056a8.336,8.336,0,0,1,.706.653l.005,0a17.941,17.941,0,0,1,5.261,12.72v5.943a4.969,4.969,0,0,0-3.217-1.351l-.019-7.642c0-.013.008-.025.008-.038a.974.974,0,0,0-.044-.216.853.853,0,0,0-.026-.124.879.879,0,0,0-.091-.168.982.982,0,0,0-.1-.142.96.96,0,0,0-.119-.111.93.93,0,0,0-.17-.113.913.913,0,0,0-.135-.061c-.026-.009-.047-.026-.075-.033C68.725,29.128,67,28.246,65.878,26.6a.914.914,0,0,0-.836-.437,1,1,0,0,0-.827.453c-2.686,4.113-14.247,4.032-18.474,3.65a1.015,1.015,0,0,0-.765.259,1,1,0,0,0-.325.739l.02,7.716a5.042,5.042,0,0,0-3.647,2.224v-4.32c.968-.1,1.693-.227,1.9-.266a1,1,0,0,0-.362-1.967c-.452.083-.978.16-1.542.223v-.585A17.956,17.956,0,0,1,47.059,20.859ZM75.554,53.1a12.966,12.966,0,0,0,1.419.622V63.969a15.9,15.9,0,0,0-9.988-3.493H63.813V57.125a14.374,14.374,0,0,0,8.856-8.292,5.086,5.086,0,0,0,.888.084,5.019,5.019,0,0,0,3.416-1.385v4.023c-.287-.127-.463-.217-.472-.222a1,1,0,0,0-.947,1.762ZM45.2,48.979a5.5,5.5,0,0,0,.606-.046,14.646,14.646,0,0,0,9.1,8.326v3.217H51.449A16.082,16.082,0,0,0,41.14,64.242l-.116-5.117V46.738a5.151,5.151,0,0,0,.641.78A4.992,4.992,0,0,0,45.2,48.979Zm-3.014-5a3.059,3.059,0,0,1,2.484-3l.011,2.414a14.406,14.406,0,0,0,.1,1.61c.014.131.03.261.049.392a14.429,14.429,0,0,0,.3,1.583,3.016,3.016,0,0,1-2.058-.879A2.976,2.976,0,0,1,42.188,43.976Zm29.58-.648v0a13.443,13.443,0,0,1-.641,3.981A12.453,12.453,0,0,1,62.343,55.5a3.468,3.468,0,0,1-.413.106A11.2,11.2,0,0,1,59.6,55.9c-.093.009-.187.01-.281.01a13.724,13.724,0,0,1-3.195-.391c-.193-.042-.4-.1-.573-.147a12.512,12.512,0,0,1-8.867-11.978l-.03-11.05c3.483.2,14.191.458,18.386-3.6,1.48,1.542,3.56,2.385,6.7,3.238l.019,7.137h-.009ZM51.449,62.476h4.463a1,1,0,0,0,1-1V57.715c.121.019.241.026.361.044s.264.033.4.048a12.169,12.169,0,0,0,1.316.082c.085,0,.171.016.255.016.148,0,.283,0,.389-.01.012,0,.024,0,.036,0,.095.009.176.009.234.009a14.377,14.377,0,0,0,1.914-.126v3.7a1,1,0,0,0,1,1h4.172a14.242,14.242,0,0,1,2.31.2c-.753,1.512-3.217,5.139-9.6,5.234l-.225,0c-5.532,0-8.166-3.074-9.363-5.367C50.553,62.506,51,62.476,51.449,62.476Zm22.312-21.6a3.029,3.029,0,0,1,2.807,3.011,3.045,3.045,0,0,1-3.018,3.033c-.076,0-.151,0-.225-.007,0-.012,0-.024.007-.035a14.988,14.988,0,0,0,.293-1.569c.016-.122.03-.243.044-.366a14.861,14.861,0,0,0,.1-1.608v-.005Zm-34.737-6.58v.728c-1.774.054-3.529-.105-4.368-.711a1,1,0,0,0-1.172,1.621,8.893,8.893,0,0,0,4.935,1.1c.2,0,.405-.006.605-.011V58.158c-.926.019-1.873.06-2.8.1-5.794.249-11.791.511-15.4-4.249-2.717-3.581-4.213-8.773-4.213-14.619,0-3.927.673-9.572,3.88-14.158a10.554,10.554,0,0,1,4-3.617,7.948,7.948,0,0,1,3.472-.636c.62,0,1.256.033,1.9.065s1.284.066,1.914.067q2.019,0,4.034,0H43.78c.047,0,.116.006.2.013A19.982,19.982,0,0,0,39.024,34.293Zm62.627,45.915.164,6.927-21.681-.568h-.028a1,1,0,0,0-.025,2l21.781.571.779,33.022H15.464l.783-33.2H67.481a1,1,0,0,0,0-2H16.294l.159-6.748Zm-21.246-2H37.357V76.567a14.042,14.042,0,0,1,10.7-13.661,11.95,11.95,0,0,0,11.416,7.009l.255,0c8.061-.121,10.852-5.113,11.56-6.774a13.959,13.959,0,0,1,5.89,3.7.93.93,0,0,0,.155.17C79.319,69.241,80.294,74.19,80.405,78.208ZM97,52.272a11.5,11.5,0,0,1-2.221,3.649c-2.379,2.462-5.954,2.361-9.413,2.264-.678-.019-1.348-.038-2-.038h-4.4V54.286a8.69,8.69,0,0,0,1.642.173,4.844,4.844,0,0,0,3.649-1.426,1,1,0,0,0-1.45-1.378c-.935.985-2.5.911-3.841.587V34.293A19.9,19.9,0,0,0,74.016,21.11H80.5c0,.226.027.45.039.675s.019.475.042.711c.026.27.07.536.108.8.033.227.058.455.1.68.051.273.12.541.184.81.051.216.094.433.153.646.077.275.172.544.262.814.068.2.126.406.2.605.1.278.228.548.347.82.08.184.151.372.238.554.135.283.291.556.442.831.089.162.168.329.263.489.179.3.379.593.577.885.084.123.157.251.244.372q.441.612.936,1.188a16.853,16.853,0,0,0,9.107,5.48,16.344,16.344,0,0,0,1.658.286c.155.019.309.035.464.05q.727.072,1.463.082c.07,0,.137.012.207.012.028,0,.055,0,.083,0,.2,0,.406-.015.61-.024.24-.009.479-.015.717-.035.034,0,.068,0,.1,0,.045.779.068,1.557.068,2.32A31.476,31.476,0,0,1,97,52.272Zm2.808-16.543a15.052,15.052,0,0,1-13.665-5.041A15.038,15.038,0,0,1,82.5,20.867c0-.224.009-.44.02-.712a15.031,15.031,0,1,1,17.3,15.574Z"/><path fill="#2c3656" d="M105.445,21.157H98.626V10.971a1,1,0,0,0-2,0V22.157a1,1,0,0,0,1,1h7.819a1,1,0,0,0,0-2Z"/></svg>