<?xml version="1.0" encoding="iso-8859-1"?>
<!-- Generator: Adobe Illustrator 21.1.0, SVG Export Plug-In . SVG Version: 6.00 Build 0)  -->
<svg version="1.1" id="Layer_1" xmlns="http://www.w3.org/2000/svg" xmlns:xlink="http://www.w3.org/1999/xlink" x="0px" y="0px"
	 viewBox="0 0 24 24" enable-background="new 0 0 24 24" xml:space="preserve">
<g>
	<path fill="#303C42" d="M18,0H6C4.8969727,0,4,0.8969727,4,2v20c0,1.1030273,0.8969727,2,2,2h12c1.1030273,0,2-0.8969727,2-2V2
		C20,0.8969727,19.1030273,0,18,0z"/>
	<path fill="#D0E6F7" d="M6,1h12c0.5512695,0,1,0.4487305,1,1v17H5V2C5,1.4487305,5.4487305,1,6,1z"/>
	<path fill="#F3F3F3" d="M18,23H6c-0.5512695,0-1-0.4487305-1-1v-2h14v2C19,22.5512695,18.5512695,23,18,23z"/>
	<path fill="#303C42" d="M11.5,3h1C12.7763672,3,13,2.7763672,13,2.5S12.7763672,2,12.5,2h-1C11.2236328,2,11,2.2236328,11,2.5
		S11.2236328,3,11.5,3z"/>
	<path fill="#303C42" d="M13.5,21h-3c-0.2763672,0-0.5,0.2236328-0.5,0.5s0.2236328,0.5,0.5,0.5h3
		c0.2763672,0,0.5-0.2236328,0.5-0.5S13.7763672,21,13.5,21z"/>
	<circle fill="#303C42" cx="17.5" cy="2.5" r="0.5"/>
	<path fill="#303C42" d="M18.3536339,13.3535156c0.1337891-0.1337891,0.1806641-0.3320313,0.1206055-0.5117188l-0.4741211-1.4223633
		V9c0-0.1962891-0.1147461-0.3740234-0.2929688-0.4550781l-5.5-2.5c-0.1318359-0.0595703-0.2822266-0.0595703-0.4140625,0l-5.5,2.5
		C6.1148643,8.6259766,6.0001183,8.8037109,6.0001183,9S6.1148643,9.3740234,6.293087,9.4550781l1.2070313,0.548645v2.3781128
		c0,0.5717773,0.3178711,1.0859375,0.8291016,1.3417969L9.8819542,14.5c0.6547852,0.3271484,1.387207,0.5,2.1181641,0.5
		s1.4633789-0.1728516,2.1181641-0.5l1.5527344-0.7763672c0.5112305-0.2558594,0.8291016-0.7700195,0.8291016-1.3417969v-2.3781128
		l0.5-0.2272949v1.6430054l-0.4741211,1.4223633c-0.0600586,0.1796875-0.0131836,0.3779297,0.1206055,0.5117188l0.5,0.5
		C17.2442589,13.9511719,17.3721886,14,17.5001183,14s0.2558594-0.0488281,0.3535156-0.1464844L18.3536339,13.3535156z"/>
	<path fill="#546F7A" d="M15.5001183,12.3818359c0,0.190918-0.105957,0.3623047-0.2763672,0.4472656l-1.5527344,0.7763672
		c-1.0332031,0.5166016-2.3085938,0.5166016-3.3417969,0l-1.5527344-0.7763672
		c-0.1704102-0.0849609-0.2763672-0.2563477-0.2763672-0.4472656v-1.923584l3.2929688,1.4968262
		C11.859005,11.9848633,11.9293175,12,12.0001183,12s0.1411133-0.0151367,0.2070313-0.0449219l3.2929688-1.4968262V12.3818359z"/>
	<path opacity="0.1" fill="#010101" d="M15.0001183,10.6855469v1.2033691c0,0.190918-0.105957,0.3623047-0.2763672,0.4472656
		l-1.5527344,0.7763672c-1.0332031,0.5166016-2.3085938,0.5166016-3.3417969,0l-1.307373-0.6536865
		c0.0256958,0.1569214,0.1091309,0.2977295,0.2546387,0.3702393l1.5527344,0.7763672
		c1.0332031,0.5166016,2.3085938,0.5166016,3.3417969,0l1.5527344-0.7763672
		c0.1704102-0.0849609,0.2763672-0.2563477,0.2763672-0.4472656v-1.923584L15.0001183,10.6855469z"/>
	<polygon fill="#637883" points="12.0001183,7.0493164 16.2916222,9 12.0001183,10.9506836 7.7086143,9 	"/>
	<path opacity="0.1" fill="#FFFFFF" d="M11.3296471,8.0623779c0.4260254-0.1936035,0.914917-0.1936035,1.3409424,0
		l2.8419189,1.291748L16.2916222,9l-4.2915039-1.9506836L7.7086143,9l0.7791138,0.354126L11.3296471,8.0623779z"/>
	<linearGradient id="SVGID_1_" gradientUnits="userSpaceOnUse" x1="10.2501183" y1="8.708252" x2="14.8158064" y2="13.2739401">
		<stop  offset="0" style="stop-color:#010101;stop-opacity:0.1"/>
		<stop  offset="1" style="stop-color:#010101;stop-opacity:0"/>
	</linearGradient>
	<path fill="url(#SVGID_1_)" d="M13.6710167,13.6054688l1.5527344-0.7763672
		c0.1704102-0.0849609,0.2763672-0.2563477,0.2763672-0.4472656v-1.923584l-3.2929688,1.4968262
		C12.1412315,11.9848633,12.070919,12,12.0001183,12s-0.1411133-0.0151367-0.2070313-0.0449219L8.5001183,10.458252
		l3.5311279,3.5311279C12.5978966,13.9847412,13.1638145,13.8590698,13.6710167,13.6054688z"/>
	<linearGradient id="SVGID_2_" gradientUnits="userSpaceOnUse" x1="1.4288284" y1="7.0705819" x2="22.5711708" y2="16.9294186">
		<stop  offset="0" style="stop-color:#FFFFFF;stop-opacity:0.2"/>
		<stop  offset="1" style="stop-color:#FFFFFF;stop-opacity:0"/>
	</linearGradient>
	<path fill="url(#SVGID_2_)" d="M18,0H6C4.8969727,0,4,0.8969727,4,2v20c0,1.1030273,0.8969727,2,2,2h12
		c1.1030273,0,2-0.8969727,2-2V2C20,0.8969727,19.1030273,0,18,0z"/>
</g>
<g>
</g>
<g>
</g>
<g>
</g>
<g>
</g>
<g>
</g>
<g>
</g>
<g>
</g>
<g>
</g>
<g>
</g>
<g>
</g>
<g>
</g>
<g>
</g>
<g>
</g>
<g>
</g>
<g>
</g>
</svg>
